<?xml version="1.0" encoding="utf-8"?>
<!-- Generator: Adobe Illustrator 22.1.0, SVG Export Plug-In . SVG Version: 6.00 Build 0)  -->
<svg version="1.1" id="Layer_1" xmlns="http://www.w3.org/2000/svg" xmlns:xlink="http://www.w3.org/1999/xlink" x="0px" y="0px"
	 viewBox="0 0 288 206" style="enable-background:new 0 0 288 206;" xml:space="preserve">
<style type="text/css">
	.st0{fill:#D1D8DB;}
	.st1{fill:#F39F85;}
	.st2{fill:#A83B29;}
	.st3{fill:#F7B58E;}
	.st4{fill:#1B5B76;}
	.st5{fill:#EA5C3E;}
	.st6{opacity:0.33;fill:#FFFFFF;enable-background:new    ;}
	.st7{fill:#87B7CB;}
	.st8{fill:#DAEEF5;}
	.st9{fill:#237BA0;}
	.st10{fill:#CD4C2E;}
	.st11{fill:#63C0C4;}
	.st12{clip-path:url(#SVGID_2_);}
	.st13{clip-path:url(#SVGID_4_);}
	.st14{fill:#FFFFFF;}
	.st15{fill:#F3A392;}
	.st16{fill:#B2341F;}
	.st17{opacity:0.33;fill:#F3A392;enable-background:new    ;}
	.st18{fill:#10485B;}
	.st19{fill:#D1E7EF;}
	.st20{clip-path:url(#SVGID_6_);}
	.st21{fill:#F6A505;}
	.st22{fill:#FFD147;}
	.st23{fill:#F1E1EF;}
	.st24{fill:#212B53;}
	.st25{fill:#053C5E;}
	.st26{fill:#E3CCE4;}
	.st27{fill:#CAB7CC;}
	.st28{fill:#01888B;}
	.st29{fill:url(#SVGID_7_);}
	.st30{fill:#194A5B;}
	.st31{fill:url(#SVGID_8_);}
	.st32{fill:#C4C9CC;}
</style>
<title>Artboard 1</title>
<rect x="35.4" y="191.3" class="st0" width="23.8" height="5.3"/>
<ellipse class="st0" cx="21.7" cy="194.7" rx="16.5" ry="4.5"/>
<ellipse class="st0" cx="72.2" cy="194.7" rx="16.5" ry="4.5"/>
<ellipse class="st0" cx="105.9" cy="197.1" rx="16.5" ry="3.1"/>
<path class="st0" d="M289.7,197.3h-138c-2,0-3.6-1.6-3.6-3.6v-0.3c0-2,1.6-3.6,3.6-3.6h138c1.1,0,2,0.9,2,2v3.5
	C291.7,196.3,290.9,197.3,289.7,197.3C289.7,197.3,289.7,197.3,289.7,197.3z"/>
<polygon class="st1" points="251.1,30.4 245.8,40.8 243.4,38.6 250.3,29.3 "/>
<path class="st1" d="M251,27c-0.3,0.3-0.5,0.7-0.5,1.1l-0.4,1.5l0.2,0.3l0.7,0.7c0-0.3-0.1,0-0.1,0l1.4-1.9c0,0,1.5-0.8-0.1-2.3
	c-0.2-0.2-0.4-0.2-0.6-0.1C251.3,26.4,251.1,26.7,251,27z"/>
<path class="st2" d="M239.9,48.2c2.1-2.3,4.1-4.8,5.9-7.3l-2-2.8l-3.1,3L239.9,48.2z"/>
<path class="st1" d="M234.3,96.6l1.3,0.2c0.2-1.7,4.2-9.6,4.5-13.7c0.2-3.2,0.7-6.4,1.2-9.6l-4.5-1.2c0,0-1.1,0,0.3,9.2
	C234.5,85.2,233.9,93.5,234.3,96.6z"/>
<path class="st3" d="M237.1,68.9c0,0,1.2,6.3,2.8,13c-1.4,4.1,1.2,15.4,1.2,15.4s1,0.8,1,0.8s1.5-10.1,1.8-14.6s0.3-10.1,0.3-10.1
	L237.1,68.9z"/>
<path class="st4" d="M240.8,96.7c-0.3,0.3-0.5,0.8-0.5,1.2c0.1,0.7,0.3,2.3,0.3,2.3h0.6l-0.1-1.5c0-0.1,1.4,1.5,1.7,1.5l3.5-0.1
	c0,0,0.2-1-1.8-1.3C243.1,98.5,241.8,97.7,240.8,96.7z"/>
<path class="st1" d="M235.8,95.6l-0.1,1.4c0,0.3,0.1,0.6,0.2,0.8c0.3,0.4,0.7,0.8,1.1,1.1c-1,0.3-1.9-0.8-2.4-1.5
	c-0.2-0.4-0.3-0.8-0.3-1.2l0.1-1.1L235.8,95.6z"/>
<path class="st4" d="M234.3,96.4c0,0-0.9,0.1-1,0.8s-0.5,2-0.5,2l0.5,0.4l0.6-1.4c0.5,0.7,1.1,1.4,1.7,2l3.8-0.1c0,0,0-1.2-2.4-1.3
	C234.9,99,234.3,96.4,234.3,96.4z"/>
<polygon class="st1" points="240.8,43.2 238.1,43.2 239.1,40 241.2,41.3 "/>
<rect x="246.8" y="19.6" transform="matrix(0.383 -0.9237 0.9237 0.383 137.471 247.5578)" class="st5" width="14.6" height="2.6"/>
<path class="st6" d="M250.5,27.3L250.5,27.3c-0.1,0,4.7-12.7,5.5-13.5c0.8-0.8,2.4-1.2,0.8,0.3S250.5,27.3,250.5,27.3z"/>
<path class="st7" d="M257.6-16.5c3.1,0,6.2,0.1,9.3,0.5c0.5,0.1,2.6,0.2,1.2,0.1l1,0.4c1.1,0.9,2,1.9,3.3,2.6
	c1.1,0.7,2.3,1.2,3.5,1.6c4,4.8,5,11.5,2.6,17.3c-3,7.1-10.4,11.4-18,10.3c-0.6-0.4-1.2-0.7-1.8-0.9c-0.2-0.1-0.4-0.2-0.6-0.3
	c-0.8-0.5-1.7-1-2.6-1.4c-0.9-0.4-1.9-0.7-2.9-0.8c-6-4.7-8.2-12.8-5.2-19.8C249.2-11.4,252.9-14.9,257.6-16.5z"/>
<path class="st8" d="M262.8,16c-1.1-0.6-2.3-1-3.5-1.1c-0.8,0-1.6-0.1-2.5-0.3h-0.1L269.4-16c8,4,11.5,13.4,8.1,21.6
	C275,11.6,269.3,15.6,262.8,16z"/>
<path class="st4" d="M247.3-6.9c-3.6,8.6,0.5,18.5,9.2,22.1c8.6,3.6,18.5-0.5,22.1-9.1c3.5-8.6-0.5-18.5-9.1-22.1
	C260.8-19.6,250.9-15.5,247.3-6.9z M249-6.2c3.2-7.7,11.9-11.3,19.6-8.1c0,0,0,0,0,0c7.7,3.2,11.3,11.9,8.1,19.6c0,0,0,0,0,0
	c-3.2,7.7-11.9,11.3-19.6,8.1c0,0,0,0,0,0C249.5,10.3,245.8,1.5,249-6.2C249-6.1,249-6.2,249-6.2L249-6.2z"/>
<path class="st4" d="M244.7,40.7l6.2-17.2c0.2-0.4,0.6-0.6,1-0.5l2.1,0.9c0.4,0.2,0.6,0.7,0.4,1.1c0,0,0,0,0,0l-4.9,11.8
	C248.9,35.7,246.2,41,244.7,40.7z"/>
<path class="st9" d="M242.8,42.4l8.1-18.8c0.2-0.4,0.6-0.6,1-0.5c-0.1,0.4-5.3,14.6-7.4,20.9C244,43.6,243.3,42.5,242.8,42.4z"/>
<path class="st10" d="M244.4,46.5c0-0.1,0-0.2-0.1-0.2c2.6-3.5,4.8-6,4.8-6l-2.3-2.5l-5.1,5h-1.5c-1.2-0.8-2.9-0.5-3.8,0.6
	c-0.6,0.7-1,2.5-0.6,4.5c1.3,5.3,0.4,8.1,0.4,8.1l7,2.5c0,0,0.1-4.6,0.1-7.9l0,0c0-0.6,0.2-1.2,0.5-1.8
	C244.4,48,244.5,47.3,244.4,46.5z"/>
<polygon class="st3" points="253.2,29.3 249.2,40.3 246.5,38.4 252.2,28.3 "/>
<path class="st3" d="M252.6,26c-0.3,0.3-0.4,0.7-0.4,1.2l-0.1,1.6l0.2,0.2l0.8,0.6c0-0.3-0.1,0-0.1,0l1.1-2.1c0,0,1.4-1-0.4-2.3
	c-0.2-0.1-0.4-0.1-0.6,0C252.8,25.4,252.7,25.7,252.6,26z"/>
<path class="st4" d="M243.4,55.7c0.5,2.5,0.9,5,1.1,7.5c0,1.5-0.1,11.3-0.1,11.3s-6.6,0.6-7.9,0.6c-0.5-8-2.3-8.2-2.4-11.9
	c0.1-1.6,0.6-3.2,1.4-4.6c0.5-0.8,0.8-1.7,0.9-2.6v-0.2L243.4,55.7z"/>
<path class="st3" d="M241.5,34.3l-4.4,1.6l0.5,3.3c0,0,0,0.1,0,0.1h0.3h0.1c1,0.3,1.8,1,2.1,2c0.6,0.1,1.3,0.1,1.9-0.1
	c0.4-0.1,0.7-0.2,1-0.5C243.9,38.9,241.5,34.3,241.5,34.3z"/>
<path class="st4" d="M241.5,37.1c-1.2,0.6-0.8,6.8-0.9,10.9c-0.1,2.3-1.7,4.1-3.9,4.5c-1.4,0.4-3,0.3-4.4-0.2
	c0.7-0.6,4.3-6.1,2.9-13.4c-0.2-1-0.2-3.6,1.3-5.1c1.8-1.6,5.5,0.4,5.5,0.4S243.1,36.2,241.5,37.1z"/>
<polygon class="st8" points="167.8,61.5 177.2,51.8 182.7,48.9 187.3,48.2 "/>
<polyline class="st7" points="167.8,61.5 187.4,49.6 187.3,48.2 "/>
<polygon class="st9" points="189.1,53.1 189.1,53.1 189.2,56.7 167.8,61.5 "/>
<polygon class="st8" points="192.6,49.9 188.8,48.3 167.9,61.4 187.4,54.9 "/>
<path class="st11" d="M253.3,77.6c-0.8,0-1.6-0.1-2.3-0.3c-0.2,0-0.3,0.1-0.4,0.3c0,0.2,0.1,0.3,0.3,0.4l0,0
	c0.8,0.1,1.6,0.2,2.4,0.3h0.9c0.2,0,0.3-0.1,0.3-0.3c0-0.2-0.1-0.3-0.3-0.3H253.3z"/>
<path class="st11" d="M198.1,45.7c-0.9,0.4-1.9,0.9-2.9,1.4c-0.2,0.1-0.2,0.3-0.1,0.4s0.3,0.2,0.4,0.1c1-0.5,2-1,2.9-1.4
	c0.2-0.1,0.2-0.3,0.2-0.4C198.5,45.7,198.3,45.6,198.1,45.7L198.1,45.7z"/>
<path class="st11" d="M203.4,44.4c0.1-0.1,0.1-0.3-0.1-0.4c-0.1-0.1-0.2-0.1-0.3-0.1c-1,0.3-2,0.7-3.1,1.1c-0.2,0.1-0.2,0.3-0.2,0.4
	c0.1,0.2,0.3,0.2,0.4,0.2c1-0.4,2.1-0.8,3-1C203.3,44.5,203.4,44.5,203.4,44.4z"/>
<path class="st11" d="M246.2,75.7c-0.2-0.1-0.3,0-0.4,0.1c0,0,0,0,0,0c-0.1,0.2,0,0.3,0.1,0.4c0,0,0,0,0,0c1,0.5,2,0.9,3,1.2
	c0.1,0,0.3,0,0.4-0.1c0,0,0-0.1,0-0.1c0.1-0.2,0-0.3-0.2-0.4C248.1,76.6,247.1,76.2,246.2,75.7z"/>
<path class="st11" d="M244.7,75.2c0.1-0.1,0.1-0.3-0.1-0.4c0,0,0,0,0,0l-0.7-0.5c-0.6-0.5-1.2-1-1.8-1.5c-0.1-0.1-0.3-0.1-0.5,0
	c0,0,0,0,0,0c-0.1,0.1-0.1,0.3,0,0.5c0.6,0.6,1.2,1.1,1.8,1.6l0.7,0.5C244.4,75.4,244.6,75.3,244.7,75.2L244.7,75.2z"/>
<path class="st11" d="M240.8,71.8L240.8,71.8c0.2-0.2,0.2-0.3,0.1-0.5c-0.7-0.8-1.3-1.7-1.9-2.6c-0.1-0.2-0.3-0.2-0.4-0.1
	c-0.2,0.1-0.2,0.3-0.1,0.4l0,0c0.6,0.9,1.2,1.8,1.9,2.7C240.4,71.9,240.6,71.9,240.8,71.8C240.8,71.8,240.8,71.8,240.8,71.8z"/>
<path class="st11" d="M224.6,47.8c0.4,0.2,0.7,0.5,1,0.7c0.5,0.4,1,0.8,1.5,1.2c0.1,0.1,0.3,0.1,0.5,0c0,0,0,0,0,0l0,0
	c0.1-0.1,0.1-0.3,0-0.4c-0.5-0.4-1-0.8-1.5-1.2c-0.3-0.3-0.7-0.5-1.1-0.8c-0.1-0.1-0.3-0.1-0.4,0.1c0,0,0,0,0,0
	C224.4,47.6,224.5,47.7,224.6,47.8z"/>
<path class="st11" d="M228.5,51.1c0.7,0.8,1.4,1.6,2.1,2.4c0.1,0.1,0.3,0.2,0.4,0.1c0,0,0,0,0,0l0.1-0.1c0.1-0.1,0.1-0.3,0-0.4
	c-0.7-0.9-1.4-1.7-2.1-2.5c-0.1-0.1-0.3-0.1-0.5,0C228.4,50.8,228.4,51,228.5,51.1z"/>
<path class="st11" d="M220.1,45.4c1,0.4,1.9,0.9,2.9,1.4c0.1,0.1,0.3,0,0.4-0.1l0,0c0.1-0.2,0-0.3-0.1-0.4c0,0,0,0,0,0
	c-1-0.5-1.9-1-2.9-1.4c-0.2-0.1-0.4,0-0.4,0.2C219.8,45.2,219.9,45.4,220.1,45.4L220.1,45.4z"/>
<path class="st11" d="M213.3,43.6c0.2,0,0.3-0.1,0.4-0.3s-0.1-0.3-0.3-0.4c-1.1-0.1-2.2-0.2-3.3-0.2c-0.2,0-0.3,0.1-0.3,0.3
	s0.1,0.3,0.3,0.3C211.2,43.4,212.3,43.5,213.3,43.6z"/>
<path class="st11" d="M235.8,62.8c0.2-0.1,0.2-0.3,0.2-0.4c0,0,0,0,0,0l-0.2-0.4c-0.4-0.9-0.8-1.7-1.1-2.6c-0.1-0.2-0.3-0.2-0.4-0.2
	c-0.2,0.1-0.2,0.3-0.2,0.4c0.4,0.9,0.8,1.7,1.1,2.6l0.2,0.4C235.4,62.8,235.6,62.9,235.8,62.8C235.8,62.8,235.8,62.8,235.8,62.8z"/>
<path class="st11" d="M218.3,44.8c0.2,0.1,0.3,0,0.4-0.2s0-0.3-0.2-0.4c-1-0.3-2.1-0.6-3.2-0.8c-0.2,0-0.3,0.1-0.4,0.2
	c0,0.2,0.1,0.3,0.2,0.4C216.3,44.2,217.3,44.4,218.3,44.8z"/>
<path class="st11" d="M286.5,73.8c-0.2,0-0.3,0.1-0.4,0.2c0,0.2,0.1,0.3,0.2,0.4l0,0c1,0.2,2.1,0.5,3.1,0.8c0.1,0,0.3,0,0.3-0.1
	c0,0,0-0.1,0-0.1c0-0.2-0.1-0.3-0.2-0.4c0,0,0,0,0,0C288.6,74.3,287.6,74,286.5,73.8z"/>
<path class="st11" d="M281.4,72.8c-0.2,0-0.3,0.1-0.4,0.3s0.1,0.3,0.3,0.4l0,0c1,0.1,2,0.3,3.2,0.5c0.2,0,0.3-0.1,0.4-0.2
	c0-0.2-0.1-0.3-0.2-0.4C283.4,73.1,282.4,73,281.4,72.8z"/>
<path class="st11" d="M236.3,64c-0.2,0.1-0.2,0.3-0.2,0.4c0,0,0,0,0,0c0.5,1.2,1,2.1,1.4,2.9c0.1,0.2,0.3,0.2,0.4,0.1
	c0.2-0.1,0.2-0.3,0.1-0.4c-0.4-0.8-0.9-1.8-1.4-2.9C236.7,64,236.5,63.9,236.3,64C236.3,64,236.3,64,236.3,64z"/>
<path class="st11" d="M276.2,72.6c-0.2,0-0.3,0.1-0.3,0.3c0,0.2,0.1,0.3,0.3,0.3c1.1-0.1,2.1-0.1,3.2,0c0.2,0,0.3-0.1,0.3-0.3
	c0-0.2-0.1-0.3-0.3-0.3C278.3,72.6,277.2,72.6,276.2,72.6z"/>
<path class="st11" d="M256.1,77.6c-0.2,0-0.3,0.2-0.3,0.3c0,0.2,0.2,0.3,0.4,0.3l0,0c1.1-0.1,2.2-0.3,3.2-0.5c0.2,0,0.3-0.2,0.2-0.4
	c0-0.2-0.2-0.3-0.4-0.2l0,0C258.2,77.3,257.1,77.5,256.1,77.6z"/>
<path class="st11" d="M231.8,54.7c-0.2,0.1-0.2,0.3-0.1,0.4c0,0,0,0,0,0c0.5,0.8,1,1.8,1.6,2.8c0.1,0.2,0.3,0.2,0.4,0.1
	c0.2-0.1,0.2-0.3,0.1-0.4c-0.5-1.1-1-2-1.6-2.9C232.2,54.6,232,54.6,231.8,54.7C231.8,54.6,231.8,54.6,231.8,54.7z"/>
<path class="st11" d="M271,73.5c-0.2,0-0.3,0.2-0.2,0.4c0,0.2,0.2,0.3,0.4,0.2c1-0.3,2.1-0.5,3.1-0.7c0.2,0,0.3-0.2,0.3-0.4
	c0-0.2-0.2-0.3-0.4-0.3l0,0C273.1,73,272.1,73.2,271,73.5z"/>
<path class="st11" d="M206.1,43.2l-1.1,0.2c-0.2,0-0.3,0.2-0.2,0.4c0,0.2,0.2,0.3,0.4,0.2l1.1-0.2c0.7-0.1,1.4-0.2,2.1-0.3
	c0.2,0,0.3-0.2,0.3-0.3c0-0.2-0.2-0.3-0.4-0.3l0,0C207.5,43,206.8,43,206.1,43.2z"/>
<path class="st11" d="M261.1,76.6c-0.2,0-0.3,0.2-0.2,0.4c0,0.2,0.2,0.3,0.4,0.2c1.1-0.3,2.2-0.7,3.1-1c0.2-0.1,0.3-0.2,0.2-0.4
	c0,0,0,0,0,0c-0.1-0.2-0.2-0.3-0.4-0.2c0,0,0,0,0,0C263.3,75.9,262.2,76.3,261.1,76.6z"/>
<path class="st11" d="M266,75c-0.2,0.1-0.3,0.2-0.2,0.4s0.2,0.3,0.4,0.2c0.9-0.3,2-0.7,3.1-1c0.2-0.1,0.3-0.2,0.2-0.4
	c-0.1-0.2-0.2-0.3-0.4-0.2C268,74.3,267,74.7,266,75z"/>
<path class="st8" d="M201.4,66.7c-1,4.3,9.3,4.9,13.5,5c1.2,0,2.3-0.1,3.5-0.3c3.6-0.7,11.4-2.6,10.3-5.2c-1.4-3.3-5.7-1-5.7-1
	s0.5-2.5-6.7-4.2s-7.2,3.9-7.2,3.9S202.7,61.2,201.4,66.7z"/>
<path class="st8" d="M307.6,123.4h-40.7c0,0-2.2-2.4,0-4.1c1.1-0.7,2.4-0.9,3.7-0.5c0.6,0.2,1.3-0.2,1.5-0.8
	c0.4-1.5,1.7-2.7,3.2-3.1c1.6-0.6,3.5,0,4.3,1.6c0.2,0.3,0.6,0.4,0.9,0.1c0.1-0.1,0.2-0.1,0.2-0.2c0.7-1.9,3.1-4.4,10.9-4.4
	c10,0,8.9,4.6,8,6.5c-0.1,0.3,0.2,0.7,0.6,0.6c1.5-0.3,4.4-0.7,5.7,0.2C307.6,120.5,307.6,123.4,307.6,123.4z"/>
<path class="st5" d="M148.8,133.6c0,0-16.8-18.3-32.4-12.2c-6.2,33.5,36,43.8,36,43.8L148.8,133.6z"/>
<g>
	<defs>
		<path id="SVGID_1_" d="M148.8,133.6c0,0-16.8-18.3-32.4-12.2c-6.2,33.5,36,43.8,36,43.8L148.8,133.6z"/>
	</defs>
	<clipPath id="SVGID_2_">
		<use xlink:href="#SVGID_1_"  style="overflow:visible;"/>
	</clipPath>
	<g class="st12">
		<polygon class="st4" points="122.4,147.4 140.9,144.7 116.2,121.6 116.6,121.1 131.7,135.2 131.1,121.3 131.8,121.7 132.4,135.8 
			152.7,154.8 152.3,155.3 141.6,145.3 123.1,148 		"/>
	</g>
</g>
<path class="st4" d="M157,162c0,0-27.6-11.4-42.9,4.2c15.6,34.3,49.3,18.8,49.3,18.8L157,162z"/>
<g>
	<defs>
		<path id="SVGID_3_" d="M157,162c0,0-27.6-11.4-42.9,4.2c15.6,34.3,49.3,18.8,49.3,18.8L157,162z"/>
	</defs>
	<clipPath id="SVGID_4_">
		<use xlink:href="#SVGID_3_"  style="overflow:visible;"/>
	</clipPath>
	<g class="st13">
		<polygon class="st14" points="132.9,186.4 132.3,186.1 149.1,171.5 114.1,166.6 114.1,165.9 139,169.4 133.4,157.7 134.2,157.9 
			139.8,169.5 139.8,169.5 160,172.3 160.4,173 150,171.6 		"/>
	</g>
</g>
<polygon class="st7" points="123.7,99.6 250.2,99.6 282.1,190.5 152.9,190.5 "/>
<polygon class="st14" points="129.1,102.7 247,102.7 276.7,187.4 156.3,187.4 "/>
<path class="st5" d="M154.8,186.6h160.3c2,0,3.6,1.6,3.6,3.6v1c0,2-1.6,3.6-3.6,3.6H154.8c-2,0-3.6-1.6-3.6-3.6v-1
	C151.2,188.3,152.9,186.6,154.8,186.6z"/>
<path class="st15" d="M153.3,186.6h56.2c2,0,3.6,1.6,3.6,3.6v1c0,2-1.6,3.6-3.6,3.6h-56.2c-1.1,0-2-0.9-2-2v-4.2
	C151.2,187.6,152.1,186.7,153.3,186.6C153.2,186.6,153.2,186.6,153.3,186.6z"/>
<circle class="st15" cx="261.6" cy="190.7" r="1.2"/>
<circle class="st10" cx="268.9" cy="190.7" r="1.2"/>
<circle class="st16" cx="276.9" cy="190.7" r="1.2"/>
<path class="st5" d="M195,192h-7.2c-0.8,0-1.4-0.6-1.4-1.4l0,0c0-0.8,0.6-1.4,1.4-1.4h7.2c0.8,0,1.4,0.6,1.4,1.4l0,0
	C196.4,191.4,195.8,192,195,192z"/>
<path class="st10" d="M182.1,192h-7.2c-0.8,0-1.4-0.6-1.4-1.4l0,0c0-0.8,0.6-1.4,1.4-1.4h7.2c0.8,0,1.4,0.6,1.4,1.4l0,0
	C183.5,191.4,182.9,192,182.1,192z"/>
<path class="st4" d="M269.4,117.2c3.3,1.9,10.8,26.5,17.4,46.3c4,12.1,8.8,23.1,8.8,23.1h-61l6.5-70.6
	C241.1,116,264,114.2,269.4,117.2z"/>
<path class="st4" d="M152.2,113.9c-2.1,1.8,8.8,30.9,16.1,51.9c2.4,6.8,4.4,13.8,6,20.8h61.6l-54-72.3
	C181.8,114.3,155.3,111.1,152.2,113.9z"/>
<path class="st14" d="M181.9,177.8l1.1,3.7c0,0,22.1-1,52.8,5.1c-5.4-6.9-13.8-14.9-53.5-15.2C176.1,170.5,181.9,177.8,181.9,177.8z
	"/>
<path class="st14" d="M283,178.1l1.3,3.5c-16.6-0.4-33.1,1.3-49.3,4.9c0.8-6.9,5.7-14.8,43.7-14.6C283.6,171.1,283,178.1,283,178.1z
	"/>
<path class="st7" d="M236.4,186.6l-24-71.3c0,0-30.6-12.2-53.8-5.8l20.4,68.1C179,177.6,222.8,179.3,236.4,186.6z"/>
<path class="st8" d="M211.6,115.3c0,0,22.5-10.5,48.9-2.8l24.4,65.5c0,0-40.6,1.4-49.3,8.6"/>
<rect x="222.4" y="147.2" transform="matrix(0.5165 -0.8563 0.8563 0.5165 -26.0967 267.9296)" class="st5" width="3.6" height="19.7"/>
<path class="st17" d="M233.2,161.2L233.2,161.2c0.1-0.1-15.3-10.1-16.8-10.3s-3.6,0.6-0.6,1.1S233.2,161.2,233.2,161.2z"/>
<path class="st7" d="M190.4,119.2c-3.4,2.5-6.7,5.1-9.8,8c-0.5,0.5-2.7,2.3-1.2,1.1l-0.8,1.3c-0.5,1.8-0.7,3.7-1.4,5.5
	c-0.6,1.6-1.5,3.1-2.5,4.5c-0.7,12.6,8.9,23.5,21.5,24.2c6.5,0.4,12.8-2,17.4-6.5c0.3-0.9,0.7-1.7,1.2-2.4c0.1-0.3,0.3-0.6,0.5-0.9
	c0.5-1.3,1.1-2.5,1.7-3.7c0.7-1.2,1.6-2.3,2.6-3.2c3.5-12.2-3.6-24.8-15.8-28.3C199.4,117.6,194.7,117.7,190.4,119.2L190.4,119.2z"
	/>
<path class="st8" d="M210.8,158.8c0.6-1.6,1.6-3,2.9-4.1c0.9-0.7,1.7-1.5,2.5-2.3l0.1-0.1l-38.4-23.2c-5.8,11.2-1.4,25,9.8,30.8
	C195.1,163.7,203.9,163.3,210.8,158.8z"/>
<path class="st4" d="M177.9,129.1c-6.5,10.8-3.1,24.9,7.8,31.4c10.8,6.5,24.9,3.1,31.4-7.8c6.5-10.8,3.1-24.9-7.8-31.4
	C198.5,114.8,184.4,118.3,177.9,129.1C177.9,129.1,177.9,129.1,177.9,129.1z M214.9,151.5c-5.8,9.6-18.3,12.7-27.9,6.9
	s-12.7-18.3-6.9-27.9c5.8-9.6,18.3-12.7,27.9-6.9c0,0,0,0,0,0C217.6,129.4,220.7,141.8,214.9,151.5z"/>
<path class="st4" d="M266.8,181.1c0.3-0.5,0.2-1.3-0.4-1.6l-36.6-22.1c-0.5-0.3-1.2-0.2-1.5,0.3l-1.6,2.6c-0.3,0.5-0.1,1.2,0.4,1.5
	c0,0,0,0,0,0l36.6,22.1c0.5,0.3,1.3,0.2,1.6-0.4L266.8,181.1z"/>
<path class="st7" d="M228.4,157.6c0.9,0.8,34.4,24.3,36.8,24.2s1.9-2,1.3-2.3l-36.6-22.1C229.3,157.1,228.7,157.2,228.4,157.6z"/>
<circle class="st14" cx="196.4" cy="128.5" r="2.9"/>
<circle class="st14" cx="202.3" cy="129.1" r="1.4"/>
<path class="st18" d="M172.6,87.1c0,0,1,5.2-1.1,12.7c9.8-0.4,16.8,7.1,16.8,7.1s14.2-8.2,20.3-7.4c0.7-5.8-0.3-8.4-0.3-8.4
	L172.6,87.1z"/>
<path class="st4" d="M157,79.2c0,0,10.4,11.6,30.6,15.3c10.8-3.1,38.4-3.1,38.4-3.1s-20.7-6.5-30.9-12.6
	C187.3,81.2,157,79.2,157,79.2z"/>
<polygon class="st5" points="213.4,104.5 213.8,104.4 217.8,110.8 214,112 "/>
<ellipse transform="matrix(8.298218e-02 -0.9966 0.9966 8.298218e-02 90.228 267.4969)" class="st10" cx="190.5" cy="84.7" rx="1.1" ry="2.1"/>
<polygon class="st5" points="190.4,85.8 214.3,91.9 213.2,104.6 213.7,104.6 214.8,91.8 192.5,84.9 "/>
<path class="st4" d="M70.9,84.5c2,0,1.4,0.9,3.7,3.6l-0.3,102.3c0,2-1.7,3.6-3.7,3.6h-6.6c-2,0-3.7-1.6-3.7-3.6c0,0,0,0,0,0
	l0.3-102.3c0-2,2.8-1,4.9-1L70.9,84.5z"/>
<path class="st9" d="M67.6,194h2.9c2,0,3.7-1.6,3.7-3.6l0.3-102.3c0-2-6.6-3.6-6.6-3.6L67.6,194z"/>
<polygon class="st4" points="66.6,77.9 67.8,74.9 69.1,78 67.9,79 "/>
<path class="st19" d="M69.1,78c-0.8,0.3-1.7,0.3-2.5-0.1l-6,9.8h14L69.1,78z"/>
<path class="st2" d="M124.7,160c-0.1-2.8-8.6-4.8-19.1-4.8c-9.5,0-17.4,1.9-18.9,4.3c0.1,0.2,0.2,0.3,0.2,0.5
	c0.7,0.6,1.1,1.5,1.3,2.4c3,1.7,9.7,2.9,17.4,2.9c8.7,0,16-1.5,18.3-3.6c0-0.4,0.2-0.7,0.5-1c0.1-0.1,0.1-0.2,0.2-0.3
	C124.6,160.3,124.7,160,124.7,160z"/>
<path class="st5" d="M99.2,130l4.8,40.4l17.7-13.3L99.2,130z M105.3,144.2l10,12l-7.8,5.9L105.3,144.2z"/>
<g>
	<defs>
		<path id="SVGID_5_" d="M99.2,130l4.8,40.4l17.6-13.3L99.2,130z M105.3,144.2l10,12l-7.8,5.9L105.3,144.2z"/>
	</defs>
	<clipPath id="SVGID_6_">
		<use xlink:href="#SVGID_5_"  style="overflow:visible;"/>
	</clipPath>
	<g class="st20">
		<polygon class="st14" points="118.9,156.2 120.7,154.9 120.6,154.8 118.8,156.1 		"/>
		<polygon class="st14" points="118.7,154.8 119.9,153.9 119.9,153.8 118.6,154.7 		"/>
		<polygon class="st14" points="117.3,154.2 119.1,152.9 119,152.8 117.2,154.1 		"/>
		<polygon class="st14" points="117,152.8 118.3,151.9 118.2,151.8 116.9,152.7 		"/>
		<polygon class="st14" points="115.6,152.3 117.4,151 117.3,150.9 115.6,152.2 		"/>
		<polygon class="st14" points="115.4,150.9 116.7,150 116.6,149.9 115.3,150.8 		"/>
		<polygon class="st14" points="114,150.3 115.8,149 115.7,148.9 113.9,150.2 		"/>
		<polygon class="st14" points="113.7,148.9 115,148 114.9,147.9 113.6,148.8 		"/>
		<polygon class="st14" points="112.3,148.3 114.1,147 114.1,146.9 112.3,148.2 		"/>
		<polygon class="st14" points="112.1,146.9 113.4,146 113.3,145.9 112,146.8 		"/>
		<polygon class="st14" points="110.7,146.3 112.5,145.1 112.4,145 110.6,146.2 		"/>
		<polygon class="st14" points="110.4,145 111.7,144.1 111.7,143.9 110.4,144.8 		"/>
		<polygon class="st14" points="109.1,144.4 110.8,143.1 110.8,143 109,144.3 		"/>
		<polygon class="st14" points="108.8,143 110.1,142.1 110,142 108.7,142.9 		"/>
		<polygon class="st14" points="107.4,142.4 109.2,141.2 109.1,141.1 107.3,142.3 		"/>
		<polygon class="st14" points="107.1,141 108.4,140.1 108.4,140 107.1,140.9 		"/>
		<polygon class="st14" points="105.8,140.3 107.6,139.1 107.5,139 105.7,140.2 		"/>
		<polygon class="st14" points="105.5,139 106.8,138.1 106.8,137.9 105.5,138.9 		"/>
		<polygon class="st14" points="104.2,138.3 105.9,137.1 105.9,137 104.1,138.2 		"/>
		<polygon class="st14" points="103.9,137 105.2,136.1 105.1,136 103.8,136.9 		"/>
		<polygon class="st14" points="102.5,136.4 104.3,135.2 104.2,135.1 102.4,136.3 		"/>
		<polygon class="st14" points="102.2,135 103.5,134.1 103.4,134 102.2,134.9 		"/>
	</g>
</g>
<path class="st4" d="M93.2,126.4c0.9-0.2,0.8,0.2,2.1,1.2l13,46.2c0.3,0.9-0.3,1.8-1.2,2.1l-2.9,0.8c-0.9,0.3-1.8-0.3-2.1-1.2
	l-13-46.2c-0.2-0.9,1.1-0.8,2-1.1L93.2,126.4z"/>
<path class="st21" d="M102.4,170.2l2.9-0.8c0.9-0.3,1.8,0.3,2.1,1.2l0.9,3.3c0.3,0.9-0.3,1.8-1.2,2.1l-2.9,0.8
	c-0.9,0.3-1.8-0.3-2.1-1.2l-0.9-3.3C100.9,171.4,101.5,170.5,102.4,170.2z"/>
<path class="st9" d="M105.8,176.3l1.3-0.4c0.9-0.3,1.4-1.2,1.2-2.1l-13-46.2c-0.2-0.9-3.4-0.8-3.4-0.8L105.8,176.3z"/>
<path class="st22" d="M105.8,176.3l1.3-0.4c0.9-0.3,1.4-1.2,1.2-2.1l-0.9-3.3c-0.3-0.9-1.2-1.4-2.1-1.2l-1.3,0.4L105.8,176.3z"/>
<rect x="100.6" y="168.6" transform="matrix(0.9627 -0.2704 0.2704 0.9627 -42.0486 34.4022)" class="st23" width="6.4" height="2.4"/>
<polygon class="st24" points="90.5,124 90.7,122.6 91.6,123.8 91.2,124.4 "/>
<path class="st19" d="M91.6,123.8c-0.3,0.2-0.7,0.3-1.1,0.3l-1.5,5.1l6.2-1.7L91.6,123.8z"/>
<path class="st5" d="M91.7,147.8c-0.6,0.3-1.3,0.5-1.9,0.7c-0.6,0.5-1.2,1-1.8,1.4c-0.2,0.6-0.5,1.2-0.9,1.8
	c0.3,0.6,0.5,1.1,0.8,1.7c3.1,5.8,13.8,19.8,18.6,25.3c0.4,0.4,0.8,0.7,1.3,0.4s0.5-0.8,0.2-1.4c-2.9-6.8-10.8-22.5-14.8-27.7
	C92.8,149.2,92.2,148.5,91.7,147.8z"/>
<path class="st10" d="M93.3,149.9c-0.6-0.8-1.1-1.4-1.7-2.1c-0.5,0.3-0.4,0.1-1,0.2c0.5,0.5,1,1,1.4,1.6c4.7,7.6,7.3,16.4,10.7,24.6
	c1.4,1.8,2.7,3.3,3.8,4.5c0.4,0.4,0.8,0.7,1.3,0.4s0.5-0.8,0.2-1.4C105.2,170.9,97.3,155.2,93.3,149.9z"/>
<path class="st25" d="M90.6,148.7c0.4-0.3,0.8-0.5,1.3-0.6c-2.5-3.1-5.4-6-8.5-8.4l-0.5,0.3c0.9,4.1,2.3,8,4.2,11.8
	C88.1,150.5,89.3,149.5,90.6,148.7z"/>
<path class="st10" d="M83.2,141.1c0,0-4.3,1.3-3.7-3.5c0.4-2.2,0.3-4.4-0.2-6.6c0,0,4.8,1.7,5.6,4.8c0.7,3.1-0.5,4.5-0.5,4.5
	L83.2,141.1z"/>
<path class="st5" d="M79.7,134.9c0,0.9-0.1,1.9-0.2,2.8c-0.6,4.8,3.7,3.5,3.7,3.5l1.2-0.8c0.2-0.3,0.4-0.7,0.5-1.1
	C82.7,138.4,80.9,136.9,79.7,134.9z"/>
<rect x="86.7" y="144.1" transform="matrix(7.706703e-02 -0.997 0.997 7.706703e-02 -40.9621 250.4796)" class="st9" width="56.3" height="6.5"/>
<polygon class="st14" points="109.5,173.9 111.3,174.1 111.3,174 109.5,173.8 "/>
<polygon class="st14" points="109.6,172.8 110.9,172.9 110.9,172.8 109.6,172.7 "/>
<polygon class="st14" points="109.7,171.7 111.5,171.8 111.5,171.7 109.7,171.6 "/>
<polygon class="st14" points="109.8,170.6 111.1,170.7 111.1,170.6 109.8,170.5 "/>
<rect x="110.7" y="168.5" transform="matrix(7.828506e-02 -0.9969 0.9969 7.828506e-02 -66.7779 266.5951)" class="st14" width="0.1" height="1.8"/>
<polygon class="st14" points="110,168.3 111.3,168.4 111.3,168.3 110,168.2 "/>
<rect x="110.9" y="166.3" transform="matrix(7.828506e-02 -0.9969 0.9969 7.828506e-02 -64.4039 264.7148)" class="st14" width="0.1" height="1.8"/>
<polygon class="st14" points="110.1,166.1 111.4,166.2 111.4,166.1 110.1,166 "/>
<rect x="111.1" y="163.9" transform="matrix(7.828506e-02 -0.9969 0.9969 7.828506e-02 -61.9098 262.7256)" class="st14" width="0.1" height="1.8"/>
<polygon class="st14" points="110.3,163.7 111.6,163.8 111.6,163.7 110.3,163.6 "/>
<rect x="111.9" y="161.6" transform="matrix(7.974522e-02 -0.9968 0.9968 7.974522e-02 -58.9886 261.1972)" class="st14" width="0.1" height="1.8"/>
<polygon class="st14" points="110.5,161.5 111.8,161.6 111.8,161.5 110.5,161.4 "/>
<rect x="111.4" y="159.4" transform="matrix(7.828506e-02 -0.9969 0.9969 7.828506e-02 -57.0663 258.8972)" class="st14" width="0.1" height="1.8"/>
<polygon class="st14" points="110.7,159.2 112,159.3 112,159.2 110.7,159.1 "/>
<polygon class="st14" points="110.8,158.1 112.6,158.2 112.6,158.1 110.8,158 "/>
<polygon class="st14" points="110.8,157 112.2,157.1 112.2,157 110.8,156.9 "/>
<polygon class="st14" points="110.9,155.7 112.7,155.8 112.8,155.7 110.9,155.6 "/>
<polygon class="st14" points="111,154.6 112.3,154.7 112.3,154.6 111,154.5 "/>
<polygon class="st14" points="111.1,153.5 112.9,153.6 112.9,153.5 111.1,153.4 "/>
<polygon class="st14" points="111.2,152.4 112.5,152.5 112.5,152.4 111.2,152.3 "/>
<polygon class="st14" points="111.3,151.2 113.1,151.3 113.1,151.2 111.3,151.1 "/>
<polygon class="st14" points="111.4,150.1 112.7,150.2 112.7,150.1 111.4,150 "/>
<polygon class="st14" points="111.5,148.9 113.3,149.1 113.3,149 111.5,148.8 "/>
<polygon class="st14" points="111.5,147.8 112.9,147.9 112.9,147.8 111.6,147.7 "/>
<polygon class="st14" points="111.6,146.6 113.4,146.7 113.4,146.6 111.7,146.5 "/>
<polygon class="st14" points="111.7,145.5 113,145.6 113.1,145.5 111.7,145.4 "/>
<polygon class="st14" points="111.8,144.4 113.6,144.5 113.6,144.4 111.8,144.2 "/>
<polygon class="st14" points="111.9,143.3 113.2,143.4 113.2,143.3 111.9,143.2 "/>
<polygon class="st14" points="112,142.1 113.8,142.2 113.8,142.1 112,141.9 "/>
<polygon class="st14" points="112.1,141 113.4,141.1 113.4,141 112.1,140.9 "/>
<polygon class="st14" points="112.2,139.8 114,140 114,139.9 112.2,139.7 "/>
<polygon class="st14" points="112.2,138.7 113.6,138.8 113.6,138.7 112.2,138.6 "/>
<polygon class="st14" points="112.3,137.5 114.2,137.6 114.2,137.5 112.3,137.4 "/>
<polygon class="st14" points="112.4,136.4 113.8,136.5 113.8,136.4 112.4,136.3 "/>
<polygon class="st14" points="112.5,135.2 114.3,135.4 114.3,135.3 112.5,135.1 "/>
<polygon class="st14" points="112.6,134.2 113.9,134.3 113.9,134.1 112.6,134 "/>
<polygon class="st14" points="112.7,132.9 114.5,133.1 114.5,133 112.7,132.8 "/>
<polygon class="st14" points="112.8,131.9 114.1,132 114.1,131.8 112.8,131.7 "/>
<rect x="113.7" y="129.8" transform="matrix(7.828506e-02 -0.9969 0.9969 7.828506e-02 -25.4584 233.9271)" class="st14" width="0.1" height="1.8"/>
<polygon class="st14" points="112.9,129.6 114.3,129.7 114.3,129.6 113,129.5 "/>
<polygon class="st14" points="113.1,128.4 114.9,128.5 114.9,128.4 113.1,128.3 "/>
<polygon class="st14" points="113.1,127.3 114.4,127.4 114.5,127.3 113.1,127.2 "/>
<rect x="114.1" y="125.2" transform="matrix(7.828506e-02 -0.9969 0.9969 7.828506e-02 -20.5803 230.0484)" class="st14" width="0.1" height="1.8"/>
<polygon class="st14" points="113.3,125.1 114.6,125.2 114.6,125 113.3,124.9 "/>
<rect x="114.2" y="122.9" transform="matrix(7.828506e-02 -0.9969 0.9969 7.828506e-02 -18.1209 228.1095)" class="st14" width="0.1" height="1.8"/>
<polygon class="st14" points="113.5,122.8 114.8,122.8 114.8,122.7 113.5,122.6 "/>
<rect x="114.4" y="120.7" transform="matrix(7.828506e-02 -0.9969 0.9969 7.828506e-02 -15.7369 226.22)" class="st14" width="0.1" height="1.8"/>
<polygon class="st14" points="113.7,120.5 115,120.6 115,120.5 113.7,120.4 "/>
<rect x="103.2" y="152" transform="matrix(0.2894 -0.9572 0.9572 0.2894 -65.5215 223.5384)" class="st15" width="29.2" height="7.7"/>
<rect x="112.1" y="166.3" transform="matrix(0.2894 -0.9572 0.9572 0.2894 -82.2701 229.5479)" class="st26" width="2.7" height="7.7"/>
<path class="st25" d="M109.6,169.8c-0.6,2-0.7,3.8,2.6,4.8c3.6,1.1,4.2-0.5,4.8-2.6L109.6,169.8z"/>
<polygon class="st19" points="118.3,140.8 122.5,135.8 125.2,136.6 125.7,143.1 "/>
<polygon class="st24" points="122.5,135.8 124.6,133.6 125.2,136.6 "/>
<rect x="102.1" y="154" transform="matrix(0.2894 -0.9572 0.9572 0.2894 -65.7006 221.3423)" class="st5" width="28.2" height="1.8"/>
<rect x="105.7" y="155.1" transform="matrix(0.2894 -0.9572 0.9572 0.2894 -64.1984 225.4897)" class="st5" width="28.2" height="1.8"/>
<path class="st10" d="M104.2,164.2c-9.7-1.4-16.7-2.7-17.5-4.7l4.6,37.5h26.2l7.2-37C122.8,162.4,115.1,165.8,104.2,164.2z"/>
<path class="st5" d="M49.1,143.5l-3.9-0.3c0-1.7-0.6-3.4-1.8-4.7c-1.5-1.5-3.9-2.3-7.1-2.3c-3.5,0-6.2,0.8-7.7,2.3
	c-0.9,0.9-1.4,2-1.4,3.2l-3.8,0.2c-0.1-2.2,0.8-4.4,2.4-6c2.3-2.3,5.8-3.5,10.6-3.5c4.4,0,7.7,1.2,10,3.5
	C48.3,138,49.3,140.8,49.1,143.5z"/>
<path class="st4" d="M65.1,158.7c-3.8,1.5-7.9,2.1-12,1.6c-8.4,0-16.4-5.4-21.8-11.4c-0.2-0.3-0.5-0.6-0.7-0.8H8.1v37h57.4v-26.4
	L65.1,158.7z"/>
<path class="st5" d="M38.6,173c0,2.3-1.1,2.5-2.4,2.5s-2.4-0.3-2.4-2.5v-7.9C17.4,163.4,8,160.5,8,160.5v29.2c0,2.6,1,4.7,2.5,4.7
	h52c1.5,0,2.5-2.1,2.5-4.7v-29.1c-11.9,2.8-12.7,2.9-26.4,4.5L38.6,173z"/>
<path class="st10" d="M54,163c-2.6,5.3-5.6,10.3-8.9,15.1c-4.2,5.7-8.9,11.1-13.8,16.3H63c1.5,0,2.5-2.1,2.5-4.7v-29.1
	C60.2,161.8,57.1,162.5,54,163z"/>
<path class="st19" d="M63,140.1H10.6c-1.6,0-2.6,2.1-2.6,4.7V159c8.4,2.8,17.2,4.2,26.1,4.4v-1.9c0-2.3,1.1-2.5,2.4-2.5
	s2.4,0.3,2.4,2.5v1.9c9.1-0.1,18.1-1.6,26.7-4.4v-14.2C65.6,142.2,64.6,140.1,63,140.1z"/>
<path class="st14" d="M38.3,170.6h-4.2c-0.6,0-1-0.4-1-1v-2.4c0-0.6,0.4-1,1-1h4.2c0.6,0,1,0.4,1,1v2.4
	C39.3,170.2,38.9,170.6,38.3,170.6z M34.2,166.4c-0.4,0-0.7,0.3-0.7,0.7l0,0v2.4c0,0.4,0.3,0.7,0.7,0.7c0,0,0,0,0,0h4.2
	c0.4,0,0.7-0.3,0.7-0.7l0,0v-2.4c0-0.4-0.3-0.7-0.7-0.7c0,0,0,0,0,0H34.2z"/>
<path class="st14" d="M36.5,168.1c0,0.1-0.1,0.3-0.3,0.3c0,0,0,0,0,0l0,0c-0.1,0-0.3-0.1-0.3-0.2c0,0,0,0,0,0v-3.4
	c0-0.1,0.1-0.3,0.3-0.3c0,0,0,0,0,0l0,0c0.1,0,0.3,0.1,0.3,0.2c0,0,0,0,0,0V168.1z"/>
<path class="st7" d="M23.1,171.1H25c1.7,0,3.3,1.1,4,2.6l1.8,4l-3.7,1.8l1.2,0.8l0.7,6.1l-13.7-0.2L14.8,171L23.1,171.1L23.1,171.1z
	"/>
<path class="st1" d="M21.6,168c0.1,0.9,0.2,1.8,0.4,2.6c0.2,0.6,1.1,0.5,1.1,0.5S22.5,174,20,174c-1.4,0-2.6-1.1-2.8-2.5l1.7-0.3
	l-0.8-2.7L21.6,168z"/>
<path class="st3" d="M22.6,164l-0.6-3.3l-5.7,2.5l0.4,1.9c0,0,0.4,4.7,3.5,4.1C23.4,168.7,22.7,163.9,22.6,164z"/>
<path class="st3" d="M30.8,177.8l0.8,2.7c0.6,2,0,4.1-1.5,5.5l-3.5,2.9l-1.1-3.3l1.9-1.9c0.6-0.6,0.8-1.6,0.5-2.4l-0.7-1.8
	L30.8,177.8z"/>
<path class="st3" d="M12.2,178.5l-0.4,1.3c-0.8,2.4-0.2,5.1,1.6,6.9l2.1,2.2l1.1-5.2l-3-5.2L12.2,178.5z"/>
<polygon class="st11" points="11.8,179.8 13.7,180.9 14,177.8 12.3,177.8 "/>
<path class="st4" d="M16.7,165.3c3.7,0.8,5.7-3.3,5.7-3.3c-0.1,0.7,0,1.4,0.2,2.1c0.7-1.1,0.9-2.4,0.4-3.6c0,0-1-2.2-5.4-1.1
	c-5.2,1.3-6,8.4-6,8.4c-0.1,1.4,0.2,2.8,1,4c0.4,0.7,0.3,1.6-0.1,2.2c-0.7,0.9-1,2.1-0.8,3.2c0.1,0.6,0.4,1.2,0.9,1.5
	c0.8,0.7,1,1.7,0.7,2.7c-0.4,1-0.4,2-0.1,3c0,0,0.4,1.2,2.2,1.3c2.8,0.1,2.7-2.1,2.5-3.3c-0.1-0.5,0-1,0.4-1.3
	c0.4-0.5,0.7-1.1,0.7-1.8c0-0.7-0.2-1.4-0.5-2c-0.4-0.7-0.3-1.6,0.2-2.3c0.7-1,1.6-2.9,1.1-4.1C18.8,168.8,17.4,168.1,16.7,165.3z"
	/>
<rect x="14.8" y="181.5" class="st14" width="13.8" height="8.3"/>
<rect x="14.8" y="189.5" class="st27" width="13.8" height="0.7"/>
<circle class="st11" cx="21.7" cy="184.9" r="0.6"/>
<path class="st4" d="M38.5,187.6c1.8,5.4-21.9,7.8-21.9,7.8l-0.6-3C16.1,192.4,36.8,182.3,38.5,187.6z"/>
<polygon class="st3" points="15.2,195.4 11.9,195.6 11.2,194.9 11.5,193.6 14.7,193.1 "/>
<path class="st28" d="M11.9,193.5l-3.4-0.4c-0.8-0.2-1.7-0.2-2.5-0.1v3.1c0.6,0.1,1.2,0.1,1.8,0l4.2-0.5v-0.1
	C11.8,195.3,14.9,194.4,11.9,193.5z"/>
<linearGradient id="SVGID_7_" gradientUnits="userSpaceOnUse" x1="4.0515" y1="19.4225" x2="5.88" y2="19.4225" gradientTransform="matrix(1 0 0 -1 0 213.985)">
	<stop  offset="0" style="stop-color:#DFEFEA"/>
	<stop  offset="1" style="stop-color:#BFE3EE"/>
</linearGradient>
<path class="st29" d="M4.1,194.3c0.3-0.8,1-1.3,1.8-1.3v3.1C4.8,196,3.8,195.6,4.1,194.3z"/>
<rect x="9.8" y="193.8" class="st14" width="0.4" height="1.4"/>
<rect x="9" y="193.8" class="st14" width="0.4" height="1.4"/>
<polygon class="st11" points="16.1,191.9 16.7,195.8 15.2,196.1 14.5,192.3 "/>
<ellipse transform="matrix(0.3589 -0.9334 0.9334 0.3589 -138.5361 126.8608)" class="st3" cx="23.1" cy="164.3" rx="0.8" ry="0.5"/>
<path class="st30" d="M4.2,187.6C2.4,193,26,195.4,26,195.4l0.6-3C26.6,192.4,5.9,182.3,4.2,187.6z"/>
<polygon class="st3" points="27.5,195.4 30.8,195.6 31.5,194.9 31.2,193.6 28,193.1 "/>
<path class="st28" d="M36.8,193c-0.8-0.1-1.7-0.1-2.5,0.1l-3.5,0.4c0.4,0.6,0.4,1.4,0,2v0.1l4.2,0.5c0.6,0.1,1.2,0.1,1.8,0V193z"/>
<linearGradient id="SVGID_8_" gradientUnits="userSpaceOnUse" x1="36.8" y1="19.4225" x2="38.64" y2="19.4225" gradientTransform="matrix(1 0 0 -1 0 213.985)">
	<stop  offset="0" style="stop-color:#DFEFEA"/>
	<stop  offset="1" style="stop-color:#BFE3EE"/>
</linearGradient>
<path class="st31" d="M38.6,194.3c-0.3-0.8-1-1.3-1.8-1.3v3.1C37.8,196,38.9,195.6,38.6,194.3z"/>
<rect x="32.5" y="193.8" class="st14" width="0.3" height="1.4"/>
<rect x="33.4" y="193.8" class="st14" width="0.3" height="1.4"/>
<polygon class="st11" points="26.6,191.9 26,195.8 27.5,196.1 28.2,192.3 "/>
<path class="st25" d="M86.5,202.5l6.8-1c0.9,0,2,0.1,2.2,0.8c0.1,0.3,0.2,0.7,0.2,1c-0.2,0.3-9.2,1.4-9.2,1.4l0,0
	c-0.6-0.5-0.7-1.4-0.2-2C86.4,202.6,86.5,202.5,86.5,202.5z"/>
<polygon class="st14" points="95.8,203.3 86.6,204.6 86.7,205 95.8,203.6 "/>
<polygon class="st14" points="89.2,202.1 89.8,202 89.7,202.8 89.1,202.9 "/>
<polygon class="st14" points="90.5,201.9 91.1,201.8 91,202.7 90.4,202.7 "/>
<path class="st3" d="M85.7,200.3l0.8,2.2l0,0c0.6,0.2,1.3,0.1,1.8-0.2l0.1-0.1v-2.3L85.7,200.3z"/>
<path class="st25" d="M108,199l1.3-6.7c0.3-0.9,0.7-1.8,1.5-1.8c0.3,0,0.7,0,1,0.1c0.2,0.3-1.8,9.1-1.8,9.1l0,0
	C109.3,200.1,108.4,199.8,108,199C108,199.1,108,199,108,199z"/>
<polygon class="st14" points="111.8,190.5 110,199.6 110.4,199.6 112.1,190.5 "/>
<polygon class="st14" points="108.5,196.3 108.6,195.7 109.4,196 109.3,196.6 "/>
<polygon class="st14" points="108.7,195 108.8,194.4 109.6,194.7 109.5,195.3 "/>
<path class="st3" d="M105.7,199h2.3l0,0c0.4-0.5,0.5-1.2,0.4-1.8v-0.1l-2.2-0.8L105.7,199z"/>
<path class="st30" d="M64.9,195.1c6.4,1.9,13,2.7,19.6,2.3c1.8-0.1,3.6,0.1,5.2,0.7c6.5,2.3,16.2,1.1,16.2,1.1l0.7-3l-32.3-8.4
	L64.9,195.1z"/>
<polygon class="st1" points="62.5,162.4 61.2,165.5 63.9,166.3 64.9,163.8 "/>
<path class="st3" d="M62.9,156.9l-0.8,4.2c0.4,0.1,0.6,0.5,0.5,0.8c0,0.1,0,0.1-0.1,0.2c0,0.1,0,0.2,0,0.3c0.9,1,2.2,1.7,3.5,1.7
	c2.8,0.1,2.4-5.4,2.4-5.4L62.9,156.9z"/>
<path class="st24" d="M60.8,159.7c0-0.5-0.1-0.9-0.4-1.3c-1.2-1.7,0.4-2.3,0.9-2.5s0.7-1.2,1.5-1.6c1.2-0.6,2,0.5,2.7,0.6
	s1.3-0.8,2.2,0s0.6,1.4,0.8,1.8s1-0.4,1.7,0.9c1.1,1.9-1.9,1.9-1.9,1.9c-1.3,0.1-2.5-0.2-3.6-1c-0.2-0.2-0.6-0.2-0.8,0
	c-0.7,0.6-1.5,4-1.5,4l-0.5-0.7C61.2,161.4,60.7,160.6,60.8,159.7z"/>
<circle class="st3" cx="63" cy="160.3" r="0.7"/>
<path class="st4" d="M55.7,185.8c0,0,0.8,8.7,8.6,9.3s17.4-8,17.4-8l3.8,13.1l3-0.5c0,0,1.4-19.3-2.8-20.6s-20.1,5-20.1,5
	L55.7,185.8z"/>
<path class="st32" d="M55.7,186.4l12.9-2c-0.5-1.9-0.9-3.8-1-5.8c0-1.4,0.2-2.9,0.7-4.2c-0.7-4.9-2.5-9.7-6.8-9.2
	C54,167,55.7,186.4,55.7,186.4z"/>
<polygon class="st19" points="91.5,167.9 87,179.3 75.7,178 75.6,178.9 87.6,180.3 92.4,168.3 "/>
<path class="st3" d="M63.1,175.1l5.1-0.8l0.5,5.7l9-2.8l2-1.3c0.5-0.3,1.1-0.5,1.8-0.4l2.5,0.4c0.3,0,0.5,0.2,0.5,0.5l0.9,2.6
	c0,0-0.6,0.4-1.5-1.8c-0.4,2.6-4.2,0.9-4.2,0.9l-1.2,0.9c0,0-9.6,7.1-12,5.8S63.1,175.1,63.1,175.1z"/>
<path class="st3" d="M84.4,176.3c0-0.3-0.2-0.5-0.5-0.5l-2.5-0.4c-0.6-0.1-1.2,0-1.8,0.4l-2,1.3l-0.3,0.1l0.3,2.1l0.6-0.4l1.2-0.9
	c0,0,3.7,1.7,4.2-0.9c1,2.2,1.5,1.8,1.5,1.8L84.4,176.3z"/>
</svg>
